# xmcd CD database file
#
# Track frame offsets:
#	150
#	7557
#	25711
#	40054
#	69949
#	93571
#	123501
#	131537
#	159009
#	166473
#	176994
#	185564
#	214403
#	242286
#	249463
#	273883
#	294207
#	306065
#	316223
#	329093
#
# Disc length: 4790 seconds
#
# Revision: 0
# Processed by: cddbd v1.5.1PL2 Copyright (c) Steve Scherf et al.
# Submitted via: CDex 1.51
#
DISCID=0812b414
DTITLE=Chick Corea - The Ultimate Adventure (iTunes version)
DYEAR=2006
DGENRE=Jazz
TTITLE0=Three Ghouls, Pt. 1
TTITLE1=Three Ghouls, Pt. 2
TTITLE2=Three Ghouls, Pt. 3
TTITLE3=City of Brass
TTITLE4=Queen Tedmur
TTITLE5=El Stephen, Pt. 1
TTITLE6=El Stephen, Pt. 2
TTITLE7=King and Queen
TTITLE8=Moseb the Executioner, Pt. 1
TTITLE9=Moseb the Executioner, Pt. 2
TTITLE10=Moseb the Executioner, Pt. 3
TTITLE11=North Africa
TTITLE12=Flight from Karoof, Pt. 1
TTITLE13=Flight from Karoof, Pt. 2
TTITLE14=Planes of Existence, Pt. 1
TTITLE15=Arabian Nights, Pt. 1
TTITLE16=Arabian Nights, Pt. 2
TTITLE17=Gods and Devils
TTITLE18=Planes of Existence, Pt. 2
TTITLE19=Captain Marvel
EXTD=YEAR: 2006
EXTT0=
EXTT1=
EXTT2=
EXTT3=
EXTT4=
EXTT5=
EXTT6=
EXTT7=
EXTT8=
EXTT9=
EXTT10=
EXTT11=
EXTT12=
EXTT13=
EXTT14=
EXTT15=
EXTT16=
EXTT17=
EXTT18=
EXTT19=
PLAYORDER=
